<?xml version="1.0" standalone="no"?>
<!DOCTYPE svg PUBLIC "-//W3C//DTD SVG 20010904//EN"
 "http://www.w3.org/TR/2001/REC-SVG-20010904/DTD/svg10.dtd">
<svg version="1.0" xmlns="http://www.w3.org/2000/svg"
 width="600.000000pt" height="580.000000pt" viewBox="0 0 600.000000 580.000000"
 preserveAspectRatio="xMidYMid meet">

<g transform="translate(0.000000,580.000000) scale(0.100000,-0.100000)"
fill="#000000" stroke="none">
<path d="M2802 4935 c-93 -17 -199 -49 -284 -86 -45 -20 -83 -29 -120 -29 -30
0 -61 -7 -72 -15 -10 -8 -23 -12 -29 -8 -6 3 -8 2 -5 -3 3 -5 -6 -18 -21 -29
-25 -19 -26 -19 -11 0 15 19 14 19 -11 3 -15 -10 -31 -13 -39 -8 -8 5 -23 2
-37 -7 -17 -11 -23 -12 -23 -3 0 9 -4 9 -17 -1 -15 -12 -16 -12 -8 1 8 13 7
13 -8 1 -10 -8 -20 -11 -24 -8 -3 4 -12 2 -20 -5 -11 -9 -13 -8 -11 1 7 31
-38 18 -85 -24 -82 -74 -154 -113 -222 -119 -33 -3 -269 -8 -525 -11 -381 -5
-471 -4 -498 8 -18 7 -29 16 -25 20 12 13 -8 7 -32 -9 -14 -9 -25 -12 -25 -6
0 7 -18 3 -42 -8 -35 -16 -66 -20 -160 -20 l-118 0 -2 -1157 c-5 -2246 -6
-2152 20 -2281 107 -528 419 -835 916 -902 53 -7 612 -10 1706 -10 1569 0
1631 1 1741 19 555 96 882 428 939 953 17 158 6 3243 -11 3232 -4 -2 -10 0
-14 6 -3 5 -11 10 -16 10 -6 0 -7 -4 -4 -10 4 -6 -4 -6 -21 1 -16 5 -40 9 -54
8 -14 0 -29 0 -35 1 -5 2 -21 4 -35 5 -37 2 -80 16 -76 24 2 3 -9 7 -25 7 -16
1 -26 -2 -24 -7 3 -4 -7 -4 -22 0 -16 4 -34 6 -42 3 -9 -3 -11 0 -6 8 6 9 -2
11 -35 5 -23 -4 -40 -3 -37 1 3 5 -8 9 -24 9 -16 0 -29 -3 -29 -7 0 -4 -12 -1
-26 7 -15 7 -33 11 -40 8 -8 -3 -14 0 -14 6 0 6 -5 11 -11 11 -5 0 -7 -5 -3
-12 5 -7 3 -8 -5 -3 -7 4 -29 9 -49 10 -20 2 -37 4 -37 5 0 1 -16 3 -35 4 -19
1 -40 5 -47 9 -6 4 -14 1 -16 -5 -4 -9 -6 -8 -6 2 -1 13 -14 15 -76 13 -41 -2
-75 1 -75 5 0 5 -35 10 -77 11 -43 1 -79 4 -82 6 -2 3 -10 0 -17 -6 -8 -6 -14
-6 -18 0 -4 5 -18 6 -34 2 -18 -5 -35 -3 -49 7 -16 10 -23 11 -23 2 0 -6 -8
-9 -17 -6 -10 3 -38 8 -63 11 -25 3 -46 9 -48 13 -1 5 -16 7 -33 6 -18 -1 -50
5 -73 13 -22 8 -83 17 -134 18 -52 2 -99 9 -107 15 -8 6 -19 9 -25 5 -5 -3
-10 -1 -10 6 0 8 -4 8 -16 -2 -12 -10 -17 -10 -23 0 -5 7 -10 11 -12 10 -2 -2
-13 4 -24 13 -11 9 -40 33 -65 54 -111 91 -152 112 -226 117 -45 3 -99 16
-154 36 -174 66 -392 88 -568 56z m307 -142 c139 -102 334 -292 432 -423 79
-104 215 -352 204 -371 -4 -5 -12 -9 -19 -9 -7 0 -40 -14 -74 -31 -77 -38
-153 -119 -183 -197 -32 -80 -32 -204 0 -284 27 -70 97 -150 165 -189 47 -26
60 -42 15 -19 -15 8 -19 7 -19 -4 0 -8 29 -29 65 -47 57 -28 79 -33 165 -37
84 -4 100 -7 100 -21 0 -9 -18 -131 -39 -271 -21 -140 -37 -258 -35 -261 2 -4
29 -10 60 -14 30 -3 101 -18 156 -31 56 -13 102 -23 103 -22 1 2 7 57 14 123
33 320 100 700 147 823 85 226 248 423 454 549 41 26 104 74 139 107 l65 61
-72 -79 c-226 -246 -430 -696 -496 -1096 -21 -124 -43 -342 -52 -508 -8 -157
-13 -166 -110 -212 -35 -17 -64 -35 -64 -40 0 -6 -61 -177 -135 -382 l-135
-372 35 -32 c59 -54 71 -118 34 -184 -21 -38 -98 -90 -133 -90 -22 0 -87 37
-111 63 l-20 23 -243 -118 c-201 -97 -242 -121 -242 -138 0 -52 -63 -133 -117
-151 -85 -28 -174 34 -202 140 -6 21 -50 41 -381 167 -351 134 -375 144 -372
166 1 13 2 43 3 67 l1 44 175 -6 c96 -3 176 -7 178 -9 1 -2 5 -20 8 -40 l6
-37 -142 5 c-78 2 -137 2 -132 -1 20 -10 655 -252 655 -250 0 2 -36 38 -80 81
l-81 78 31 31 32 30 89 -93 89 -94 35 12 c46 15 97 6 134 -25 l29 -25 93 44
c52 24 158 75 236 113 l142 70 -247 6 c-136 4 -301 7 -367 7 -66 0 -144 3
-173 7 -50 6 -53 8 -48 29 4 13 0 39 -8 59 l-15 34 87 26 c130 39 322 102 326
106 2 2 6 19 9 36 6 32 2 37 -126 151 -73 66 -145 130 -160 143 l-28 24 29 28
30 28 156 -140 156 -141 42 19 c24 11 50 22 59 24 12 4 175 366 167 372 -2 1
-43 -2 -93 -6 -49 -4 -131 -8 -181 -8 -62 -1 -123 -9 -190 -26 -54 -14 -99
-25 -100 -25 -1 0 -7 21 -14 46 -13 45 -40 72 -102 104 -42 20 -102 -3 -156
-58 l-42 -45 -138 7 c-75 4 -181 11 -236 17 -54 5 -100 8 -102 6 -3 -2 -9 -31
-15 -64 l-11 -59 36 -36 36 -36 197 53 c109 29 206 56 216 60 13 6 20 0 27
-21 19 -53 34 -46 -230 -114 -191 -50 -195 -52 -207 -87 -10 -27 -6 -31 168
-178 l177 -149 -22 -28 c-11 -15 -24 -27 -28 -27 -4 -1 -86 66 -182 148 -172
148 -175 150 -205 138 -35 -13 -33 -8 -56 -135 l-17 -92 -42 2 c-22 1 -55 -2
-72 -6 -29 -6 -32 -5 -38 21 -4 15 -57 180 -118 366 l-110 338 -62 29 c-34 16
-73 41 -85 54 -26 28 -26 27 -41 266 -21 319 -55 518 -129 740 -113 338 -273
624 -443 791 l-63 61 75 -7 c112 -11 284 -49 382 -85 156 -57 360 -174 431
-247 l26 -28 -29 -43 c-47 -71 -63 -132 -58 -231 3 -70 10 -99 32 -144 37 -76
106 -144 186 -181 60 -29 73 -31 170 -31 99 0 110 2 172 33 83 41 158 119 189
200 32 80 32 204 0 285 -41 105 -134 186 -263 230 -16 6 -16 9 -2 44 80 190
193 352 369 529 140 141 342 303 379 304 10 0 66 -35 125 -77z m2136 -323 c3
-5 1 -10 -4 -10 -6 0 -11 5 -11 10 0 6 2 10 4 10 3 0 8 -4 11 -10z m-270 -237
c-160 -13 -367 -70 -518 -142 -85 -41 -236 -138 -291 -187 -29 -26 -29 -26
-12 -52 56 -87 71 -135 71 -232 0 -82 -4 -103 -27 -153 -38 -81 -117 -161
-197 -199 -57 -27 -79 -32 -156 -34 -78 -3 -83 -2 -37 6 156 24 273 147 303
319 15 82 -1 167 -46 256 l-35 69 47 49 c123 126 310 213 578 267 119 24 230
38 305 37 39 0 43 -1 15 -4z m-1228 -989 c-3 -3 -12 -4 -19 -1 -8 3 -5 6 6 6
11 1 17 -2 13 -5z m-902 -1460 c-22 -106 -43 -195 -46 -198 -7 -8 -69 13 -69
23 0 4 13 68 29 142 16 73 34 159 40 190 l12 56 37 -10 38 -10 -41 -193z"/>
<path d="M2515 2553 c-206 -6 -591 -45 -605 -60 -3 -3 14 -3 38 1 67 10 51
-10 -44 -54 l-86 -40 21 -28 c11 -16 26 -34 33 -39 11 -9 124 -29 265 -46 38
-4 37 -6 54 113 17 121 21 130 64 130 41 0 40 8 16 -135 -13 -75 -16 -112 -9
-116 12 -8 341 -23 376 -18 20 4 13 12 -54 69 -154 130 -224 192 -224 201 0 5
23 9 51 9 51 0 53 -1 194 -119 l143 -120 -14 47 c-8 25 -17 83 -21 129 l-6 83
-56 -2 c-31 -1 -92 -3 -136 -5z"/>
<path d="M3976 2469 c-3 -18 -4 -34 -1 -37 9 -9 179 13 182 25 4 11 -29 20
-138 38 -35 6 -36 5 -43 -26z"/>
<path d="M1794 2469 c-34 -10 -68 -26 -75 -36 -12 -14 -9 -14 21 2 19 10 64
26 100 36 36 10 54 18 40 18 -14 0 -53 -9 -86 -20z"/>
<path d="M4038 2346 c-42 -6 -83 -17 -90 -23 -15 -16 -6 -16 82 -2 36 5 72 17
80 25 8 7 12 13 10 13 -3 -1 -40 -7 -82 -13z"/>
<path d="M1948 2245 c3 -5 35 -45 71 -88 57 -69 68 -77 90 -72 14 4 29 11 32
17 8 13 21 109 16 115 -11 10 -215 38 -209 28z"/>
<path d="M4114 2239 c-22 -26 -365 -344 -477 -444 -56 -50 -76 -73 -70 -84 4
-9 7 -34 8 -56 l0 -40 109 -56 108 -55 46 23 46 23 84 233 c150 416 172 477
168 477 -1 0 -11 -10 -22 -21z"/>
<path d="M3970 2244 c-8 -2 -55 -11 -105 -19 -73 -11 -169 -33 -183 -41 -5 -3
-161 -378 -158 -381 2 -2 392 350 461 418 28 27 24 33 -15 23z"/>
<path d="M1850 2234 c0 -4 46 -147 102 -317 l103 -309 19 96 19 97 -36 32
c-48 45 -65 104 -45 155 l15 39 -88 107 c-49 59 -89 104 -89 100z"/>
<path d="M3195 1544 c-55 -18 -127 -41 -160 -51 l-60 -18 195 -6 c107 -4 272
-7 365 -7 l170 -1 -86 44 -87 44 -50 -21 c-45 -19 -56 -20 -91 -9 -22 6 -53
22 -68 35 l-28 23 -100 -33z"/>
</g>
</svg>
